<svg width="20" height="20" viewBox="0 0 20 20" fill="none" xmlns="http://www.w3.org/2000/svg">
<path d="M12.5 10C12.5 10.6904 12.2559 11.2796 11.7678 11.7678C11.2796 12.2559 10.6904 12.5 10 12.5C9.30964 12.5 8.72039 12.2559 8.23223 11.7678C7.74408 11.2796 7.5 10.6904 7.5 10C7.5 9.30964 7.74408 8.72039 8.23223 8.23223C8.72039 7.74408 9.30964 7.5 10 7.5C10.6904 7.5 11.2796 7.74408 11.7678 8.23223C12.2559 8.72039 12.5 9.30964 12.5 10Z" stroke="#6B7280" stroke-width="1.66667" stroke-linejoin="round"/>
<path d="M2.04883 9.99935C3.11049 6.61852 6.26966 4.16602 10.0005 4.16602C13.7322 4.16602 16.8905 6.61852 17.9522 9.99935C16.8905 13.3802 13.7322 15.8327 10.0005 15.8327C6.26966 15.8327 3.1105 13.3802 2.04883 9.99935Z" stroke="#6B7280" stroke-width="1.66667" stroke-linejoin="round"/>
</svg>
