<svg width="20" height="20" viewBox="0 0 20 20" fill="none" xmlns="http://www.w3.org/2000/svg">
  <path d="M10 12.5C11.3807 12.5 12.5 11.3807 12.5 10C12.5 8.61929 11.3807 7.5 10 7.5C8.61929 7.5 7.5 8.61929 7.5 10C7.5 11.3807 8.61929 12.5 10 12.5Z" stroke="#9CA3AF" stroke-width="1.5" stroke-linecap="round" stroke-linejoin="round"/>
  <path d="M16.1667 12.5C16.0557 12.7513 16.0226 13.0302 16.0717 13.3005C16.1208 13.5708 16.2496 13.8203 16.4417 14.0167L16.4917 14.0667C16.6463 14.2212 16.7687 14.4049 16.8512 14.6074C16.9337 14.8099 16.9744 15.0269 16.9708 15.2455C16.9672 15.4641 16.9194 15.6794 16.8305 15.8787C16.7416 16.078 16.6137 16.2571 16.4545 16.4065C16.2953 16.5559 16.1085 16.6721 15.9052 16.7482C15.7019 16.8243 15.4864 16.8586 15.2708 16.8492C15.0552 16.8398 14.8437 16.7869 14.65 16.6933C14.4563 16.5998 14.2847 16.4679 14.1458 16.3067L14.0958 16.2567C13.8994 16.0646 13.6499 15.9358 13.3796 15.8867C13.1093 15.8376 12.8304 15.8707 12.5792 15.9817C12.3328 16.0876 12.1238 16.2615 11.9766 16.4818C11.8294 16.7021 11.7505 16.9592 11.75 17.2225V17.3333C11.75 17.7754 11.5744 18.1993 11.2618 18.5118C10.9493 18.8244 10.5254 19 10.0833 19C9.64131 19 9.21738 18.8244 8.90482 18.5118C8.59226 18.1993 8.41667 17.7754 8.41667 17.3333V17.2583C8.40991 16.9859 8.31978 16.7225 8.15887 16.5029C7.99796 16.2833 7.77469 16.1185 7.52083 16.0317C7.26962 15.9207 6.99073 15.8876 6.72043 15.9367C6.45013 15.9858 6.20063 16.1146 6.00417 16.3067L5.95417 16.3567C5.81528 16.5179 5.64372 16.6498 5.45001 16.7433C5.2563 16.8369 5.04479 16.8898 4.82918 16.8992C4.61357 16.9086 4.39808 16.8743 4.19479 16.7982C3.9915 16.7221 3.80468 16.6059 3.64549 16.4565C3.4863 16.3071 3.35837 16.128 3.26948 15.9287C3.18059 15.7294 3.13281 15.5141 3.12921 15.2955C3.12561 15.0769 3.16628 14.8599 3.24878 14.6574C3.33128 14.4549 3.45372 14.2712 3.60833 14.1167L3.65833 14.0667C3.85045 13.8746 3.97922 13.6251 4.02832 13.3548C4.07742 13.0845 4.04432 12.8056 3.93333 12.5544C3.82745 12.308 3.65355 12.099 3.43325 11.9518C3.21295 11.8046 2.95587 11.7257 2.6925 11.7252H2.58333C2.14131 11.7252 1.71738 11.5496 1.40482 11.2371C1.09226 10.9245 0.916672 10.5006 0.916672 10.0586C0.916672 9.61657 1.09226 9.19264 1.40482 8.88008C1.71738 8.56752 2.14131 8.39193 2.58333 8.39193H2.65833C2.93073 8.38517 3.19412 8.29504 3.41371 8.13413C3.6333 7.97322 3.79808 7.74995 3.88483 7.49609C3.99582 7.24488 4.02892 6.96599 3.97982 6.69569C3.93072 6.42539 3.80195 6.17589 3.60983 5.97943L3.55983 5.92943C3.40522 5.77482 3.28278 5.59112 3.20028 5.38862C3.11778 5.18612 3.07711 4.96912 3.08071 4.75052C3.08431 4.53192 3.13209 4.31662 3.22098 4.11732C3.30987 3.91802 3.4378 3.73892 3.59699 3.58952C3.75618 3.44012 3.943 3.32392 4.14629 3.24782C4.34958 3.17172 4.56507 3.13742 4.78068 3.14682C4.99629 3.15622 5.2078 3.20912 5.40151 3.30272C5.59522 3.39632 5.76678 3.52822 5.90567 3.68943L5.95567 3.73943C6.15213 3.93155 6.40163 4.06032 6.67193 4.10942C6.94223 4.15852 7.22112 4.12542 7.47233 4.01443C7.71873 3.90855 7.92773 3.73465 8.07493 3.51435C8.22213 3.29405 8.30103 3.03697 8.30153 2.7736V2.66667C8.30153 2.22464 8.47712 1.80072 8.78968 1.48816C9.10224 1.1756 9.52616 1 9.96819 1C10.4102 1 10.8341 1.1756 11.1467 1.48816C11.4593 1.80072 11.6349 2.22464 11.6349 2.66667V2.74167C11.6354 3.00504 11.7143 3.26212 11.8615 3.48242C12.0087 3.70272 12.2177 3.87662 12.4641 3.9825C12.7153 4.09349 12.9942 4.12659 13.2645 4.07749C13.5348 4.02839 13.7843 3.89962 13.9807 3.7075L14.0307 3.6575C14.1696 3.49629 14.3412 3.36439 14.5349 3.27079C14.7286 3.17719 14.9401 3.12429 15.1557 3.11489C15.3713 3.10549 15.5868 3.13979 15.7901 3.21589C15.9934 3.29199 16.1802 3.40819 16.3394 3.55759C16.4986 3.70699 16.6265 3.88609 16.7154 4.08539C16.8043 4.28469 16.8521 4.49999 16.8557 4.71859C16.8593 4.93719 16.8186 5.15419 16.7361 5.35669C16.6536 5.55919 16.5312 5.74289 16.3766 5.8975L16.3266 5.9475C16.1345 6.14396 16.0057 6.39346 15.9566 6.66376C15.9075 6.93406 15.9406 7.21295 16.0516 7.46416C16.1575 7.71056 16.3314 7.91956 16.5517 8.06676C16.772 8.21396 17.0291 8.29286 17.2925 8.29336H17.4167C17.8587 8.29336 18.2826 8.46895 18.5952 8.78151C18.9077 9.09407 19.0833 9.51799 19.0833 9.96002C19.0833 10.402 18.9077 10.826 18.5952 11.1385C18.2826 11.4511 17.8587 11.6267 17.4167 11.6267H17.3417C17.0783 11.6272 16.8212 11.7061 16.6009 11.8533C16.3806 12.0005 16.2067 12.2095 16.1008 12.4559C15.9898 12.7071 15.9567 12.986 16.0058 13.2563C16.0549 13.5266 16.1837 13.7761 16.3758 13.9725L16.4258 14.0225C16.5804 14.1771 16.7029 14.3608 16.7854 14.5633C16.8679 14.7658 16.9085 14.9828 16.9049 15.2014C16.9013 15.42 16.8535 15.6353 16.7646 15.8346C16.6757 16.0339 16.5478 16.213 16.3886 16.3624C16.2294 16.5118 16.0426 16.628 15.8393 16.7041C15.636 16.7802 15.4205 16.8145 15.2049 16.8051C14.9893 16.7957 14.7778 16.7428 14.5841 16.6492C14.3904 16.5556 14.2188 16.4237 14.0799 16.2625L14.0299 16.2125C13.8335 16.0204 13.584 15.8916 13.3137 15.8425C13.0434 15.7934 12.7645 15.8265 12.5133 15.9375" stroke="#9CA3AF" stroke-width="1.5" stroke-linecap="round" stroke-linejoin="round"/>
</svg>
